<svg xmlns="http://www.w3.org/2000/svg" viewBox="0 0 64 64">
  <rect width="64" height="64" rx="14" fill="none"/>

  <!-- Head -->
  <ellipse cx="32" cy="28.5" rx="18" ry="17" fill="#ff1f35"/>

  <!-- Tentacles -->
  <ellipse cx="18.8" cy="44.2" rx="5.2" ry="3.2" fill="#ff1f35"/>
  <ellipse cx="24.2" cy="46.6" rx="5.6" ry="3.4" fill="#ff1f35"/>
  <ellipse cx="32" cy="47.8" rx="6.0" ry="3.9" fill="#ff1f35"/>
  <ellipse cx="39.8" cy="46.6" rx="5.6" ry="3.4" fill="#ff1f35"/>
  <ellipse cx="45.2" cy="44.2" rx="5.2" ry="3.2" fill="#ff1f35"/>

  <!-- Eyes -->
  <circle cx="24.7" cy="31.2" r="5.8" fill="#fff"/>
  <circle cx="39.3" cy="31.2" r="5.8" fill="#fff"/>
  <circle cx="24.7" cy="31.2" r="4.6" fill="#000"/>
  <circle cx="39.3" cy="31.2" r="4.6" fill="#000"/>
  <circle cx="22.8" cy="29.3" r="1.0" fill="#fff"/>
  <circle cx="37.4" cy="29.3" r="1.0" fill="#fff"/>

  <!-- Brows -->
  <path d="M20 24.4c0-0.6 1-1.1 2.1-1.1s2.1 0.5 2.1 1.1" fill="none" stroke="#000" stroke-width="1.2" stroke-linecap="round"/>
  <path d="M39.8 24.4c0-0.6 1-1.1 2.1-1.1s2.1 0.5 2.1 1.1" fill="none" stroke="#000" stroke-width="1.2" stroke-linecap="round"/>

  <!-- Smile -->
  <path d="M29.5 37.8c0.4 1.3 1.4 2.1 2.5 2.1 1.1 0 2.1-0.8 2.5-2.1" fill="none" stroke="#000" stroke-width="1.5" stroke-linecap="round"/>
</svg>
